<svg version="1" xmlns="http://www.w3.org/2000/svg" width="800" height="800" viewBox="0 0 600.000000 600.000000"><path d="M74.5 83.6c-34 6.7-62.6 32.9-71.1 65.1-.7 2.8-1.7 6.4-2.1 8-.4 1.5-.9 65.1-1 141.3C.1 431.3.1 436.8 2 445.2c3.9 17.9 11.2 31.7 23.5 44.3 8.3 8.7 14.7 13.6 23.4 17.9 5.7 2.9 14.6 6.6 17.6 7.2 15 3.4 10.8 3.3 236 3.1 121-.1 221.4-.6 223-1 21-5.3 33.5-11.9 46.8-24.7 9.9-9.5 18.3-22.7 22.9-35.9 4.7-13.9 4.7-13 4.7-157.1 0-129.6-.1-135.9-1.9-144.2-3.9-18-11.8-32.7-24.5-45.4-13.9-14-26.1-20.6-48-26.1-1.6-.4-102.2-.8-223.5-.9-184-.2-221.7 0-227.5 1.2z"/></svg>