<svg version="1" xmlns="http://www.w3.org/2000/svg" width="429.333" height="429.333" viewBox="0 0 322.000000 322.000000"><path d="M101.8 44.7c32.5.2 85.9.2 118.5 0 32.5-.1 5.9-.2-59.3-.2s-91.8.1-59.2.2zM38.8 45.7c.6.2 1.8.2 2.5 0 .6-.3.1-.5-1.3-.5-1.4 0-1.9.2-1.2.5zM280.8 45.7c.6.2 1.8.2 2.5 0 .6-.3.1-.5-1.3-.5-1.4 0-1.9.2-1.2.5zM30.5 47.9c-5.3 2.5-4.3 2.6 2 .1 2.8-1 4.3-1.9 3.5-1.9-.8 0-3.3.8-5.5 1.8zM289.4 48c2.8 1.1 5.1 1.8 5.3 1.6.5-.5-7.4-3.6-9-3.6-.6.1 1 1 3.7 2z"/><path d="M19.3 54.4C14.2 58.3 8.8 64.5 6.6 69c-.4.8.1.4 1.1-1C10 64.6 20.9 53.8 24 51.8c1.4-1 2.2-1.7 1.8-1.7-.3-.1-3.2 1.9-6.5 4.3zM298 51.7c4.8 3.4 13 11.6 15.2 15.1 1.2 1.9 3.2 6 4.4 9.1 1.3 3.1 2.4 4.9 2.4 4 0-.9-1.6-4.9-3.6-8.9-3.9-7.6-11.6-16.2-17.5-19.3-3.2-1.7-3.3-1.7-.9 0zM4.2 73.5c-1.7 3.7-1.4 4.5.4 1.2.9-1.6 1.4-3.1 1.1-3.3-.2-.2-.9.7-1.5 2.1zM86.4 76c-19.3 2.7-35.7 11.3-49.6 25.8-9 9.5-14.7 18.8-19 31.3-2.8 8.3-3.2 10.9-3.6 22.9-.2 7.4 0 15.2.5 17.3.5 2.6.8-1.3.8-12 0-17.8 1.2-23.7 7.1-36.2 10.8-23 30.9-39.6 55.9-46.2 10.3-2.7 27.9-2.9 37.9-.5 3.8.9 7.1 1.4 7.3 1.2.3-.2-2.7-1.1-6.6-2-8.8-2-22.7-2.7-30.7-1.6zM211.3 78c-26.9 3.9-51.5 21.9-63.3 46.4-6.2 12.8-8.2 21.8-8.2 36.6.1 6.9.5 14.1 1.1 16 .9 3.1.9 2.8.4-2-1.8-16.7.6-34 6.5-47 9.1-19.8 26.5-36.4 46-43.8 11.5-4.4 18.4-5.6 32.2-5.6 8.6 0 11.1-.2 8-.7-5.7-.9-15.9-.9-22.7.1zM2.1 79.6c0 1.1.3 1.4.6.6.3-.7.2-1.6-.1-1.9-.3-.4-.6.2-.5 1.3zM239.8 79.7c.6.2 1.8.2 2.5 0 .6-.3.1-.5-1.3-.5-1.4 0-1.9.2-1.2.5zM244.8 80.7c.7.3 1.6.2 1.9-.1.4-.3-.2-.6-1.3-.5-1.1 0-1.4.3-.6.6zM1.2 84c0 1.4.2 1.9.5 1.2.2-.6.2-1.8 0-2.5-.3-.6-.5-.1-.5 1.3zM320.2 84c0 1.4.2 1.9.5 1.2.2-.6.2-1.8 0-2.5-.3-.6-.5-.1-.5 1.3zM.5 161c0 41 .1 57.7.2 37.2.2-20.4.2-54 0-74.5C.6 103.3.5 120 .5 161zM321.5 161c0 41 .1 57.7.2 37.2.2-20.4.2-54 0-74.5-.1-20.4-.2-3.7-.2 37.3zM101.5 105.6c-8.3 4.3-12.7 12.7-12.7 23.9 0 8.3 2.1 14 7.9 21.6 5.7 7.5 9.4 8.2 4.4.8-4.7-7.1-6.4-13.5-6-23.6.5-10.2 2.6-15.5 7.9-19.1 4.5-3 8.5-2.9 11.9.6 6 6 4.6 20.8-4 43.4l-3 7.6-11.7-.1c-21-.2-35.1 6.5-42.6 20.3-5.6 10.2-3.4 20 5.4 24.8 5.6 3 11.6 2.6 19.2-1.1 11-5.5 20.4-15.1 29-30l5.1-8.8 3.9.6c4.7.8 5.3-1.1.8-2.6-1.6-.6-3-1.4-3-1.7 0-.3 1.1-3.4 2.5-6.8 6.4-16.1 8.6-35.3 4.9-42.9-3.7-7.6-12.7-10.7-19.9-6.9zm3.5 59.5c0 2.2-9.4 16.8-15.4 24-6.7 7.9-13.6 13.2-19.7 15-8.6 2.6-15.9-2.9-14.4-10.9 2.2-12 14.6-23.5 29.5-27.4 7.5-2 20-2.4 20-.7zM261.4 123c-1.7 1.6-2.6 1.7-7.4.9-9.7-1.6-24.4 1.3-33.6 6.6-17.1 9.9-28.9 28.5-27 42.3 1.7 12.8 11.3 19.1 25 16.2 10.9-2.2 17.5-9.8 27.1-31 5.6-12.5 15.2-29 16.8-29 3.8 0 9.7 8.7 9.7 14.2 0 3.5-3.7 10.2-6.6 11.9-2.5 1.5-3 1.5-7.1-.3-5.2-2.3-9.3-1.8-9.3 1.2s3.9 5 9.7 5c5.1 0 5.3.1 7.9 4.6 5.3 9.1 2.3 18.3-7.3 22.6-7.3 3.2-13.7 1.4-17.8-5.2-1.4-2.2-3-4-3.5-4-3.4 0 2.8 9.5 8.5 13 4.6 2.8 13.4 3.2 18.1.7 10.6-5.5 13.2-17 6.4-28l-3-4.8 3.1-2.7c5.6-4.6 7.4-12.6 4.6-19.5-1.4-3.2-8.1-10-10.8-10.9-1.1-.4-1.2-.8-.1-2 1-1.2 1-1.7-.1-2.6-1-.9-1.8-.7-3.3.8zm-9 10.2c-2.6 3.5-8.5 14.1-13.1 23.7-11.8 24.1-16.7 29.1-28.7 29.1-4.4 0-6.1-.5-8.3-2.4-2.7-2.3-2.8-2.9-2.8-10.8 0-7.5.4-9.1 3.4-15.3 2.4-4.9 5.6-9.1 10.5-14 10.9-10.7 23.2-16.2 36.8-16.4l6.8-.1-4.6 6.2zm4.9 24.5c-.7.2-2.1.2-3 0-1-.3-.4-.5 1.2-.5 1.7 0 2.4.2 1.8.5z"/><path d="M179 123.5c0 .5.5 1.7 1 2.5s1 1 1 .5c0-.6-.5-1.7-1-2.5s-1-1.1-1-.5zM309.1 137.6c0 1.1.3 1.4.6.6.3-.7.2-1.6-.1-1.9-.3-.4-.6.2-.5 1.3zM184.1 138.6c0 1.1.3 1.4.6.6.3-.7.2-1.6-.1-1.9-.3-.4-.6.2-.5 1.3zM310.1 141.6c0 1.1.3 1.4.6.6.3-.7.2-1.6-.1-1.9-.3-.4-.6.2-.5 1.3zM185.4 145.2c1.4 9.4.7 25.6-1.4 34.5-2.6 10.9-9.1 24.8-15.8 33.5-2.8 3.8-4.7 6.8-4.2 6.8 1.6 0 10.7-13 14.4-20.5 7.4-15.3 10.4-32.2 8.6-48.5-.6-5.1-1.3-9.6-1.7-9.9-.3-.4-.2 1.5.1 4.1zM311.8 156.6c.3 9.8 0 15.1-1.3 21.5-6.9 34.1-31.2 59.9-65 69.2-6.6 1.8-10.6 2.2-23.4 2.2-8.8 0-13.7.3-11.5.7 7 1.2 23.3.8 31.2-.8 32.4-6.7 57.5-29.4 67.7-61.4 2.3-7.1 2.8-10.8 3.2-22.5.3-7.7.1-15.8-.4-18-.7-2.8-.8 0-.5 9.1zM159.2 148.5c-3.3 1.4-5.2 4.1-5.2 7.3 0 1.2-1.4 2.8-3.5 4.1-4 2.3-5 4.1-4.1 7.5.7 3 5.5 4.8 10.5 4 2.5-.4 4.8.1 7.6 1.5 4.9 2.6 7.6 2.6 10.5.3 3.2-2.6 2.1-6.6-2.2-8.1l-3.3-1.1 3 2.4c2.5 2 2.8 2.8 1.9 4.3-1.6 2.7-7.5 2.9-9.8.4-1.8-1.9-1.8-2.1.3-4.7 1.2-1.5 2.1-3.8 2-5.3l-.1-2.6-.8 2.8c-1 3.4-2.8 5.7-4.4 5.7-1 0-4.6-5.9-4.6-7.5 0-.3 1.7-1.3 3.8-2.4 4.9-2.5 6.5-4.5 5.7-6.9-.8-2.6-3.5-3.2-7.3-1.7zm5.6 2.7c.2 1.1-.9 2.5-3 3.8-4.2 2.5-4.8 2.5-4.8-.2 0-4.7 7-7.9 7.8-3.6zm-8.5 13.2c1.4 2.5 2.2 4.7 1.9 5-1 1.1-6.8.6-8-.6-1.8-1.8-1.5-4.5.8-6.8 1.1-1.1 2.2-2 2.4-2 .2 0 1.5 2 2.9 4.4zM16.2 179.5c0 1.1.3 2.9.8 4 1.1 2.5 1.1-.1 0-3.5-.6-2-.8-2.1-.8-.5zM142.1 182.6c0 1.1.3 1.4.6.6.3-.7.2-1.6-.1-1.9-.3-.4-.6.2-.5 1.3zM153.5 228.2c-19.9 16.4-48.4 23.5-72.9 18.3-7.8-1.7-9.9-1.4-3.4.4 7.7 2.2 29.4 2.6 38.9.7 13.9-2.8 29.9-10.5 39.7-19.2 6.7-5.9 4.9-6.1-2.3-.2zM1.2 238c0 1.4.2 1.9.5 1.2.2-.6.2-1.8 0-2.5-.3-.6-.5-.1-.5 1.3zM320.2 238c0 1.4.2 1.9.5 1.2.2-.6.2-1.8 0-2.5-.3-.6-.5-.1-.5 1.3zM2 241.7c0 1.6 3.1 9.5 3.6 9 .2-.2-.5-2.5-1.6-5.3-1-2.7-1.9-4.3-2-3.7zM319.1 242c-.2 3.6-6.5 14.5-11.2 19.5-5.9 6.2-9.7 8.8-17.8 12.1-3.1 1.3-4.9 2.4-4 2.4 3.5 0 16.3-7.4 21.4-12.6 5.5-5.5 13.2-19.1 12.2-21.6-.4-1-.6-.9-.6.2zM189 244c.8.5 2 1 2.5 1 .6 0 .3-.5-.5-1s-1.9-1-2.5-1c-.5 0-.3.5.5 1zM199.8 247.7c.7.3 1.6.2 1.9-.1.4-.3-.2-.6-1.3-.5-1.1 0-1.4.3-.6.6zM203.8 248.7c.7.3 1.6.2 1.9-.1.4-.3-.2-.6-1.3-.5-1.1 0-1.4.3-.6.6zM7.7 254.9c3.1 5.8 12 13.8 19.5 17.6 3.9 1.9 7.8 3.5 8.7 3.5.9 0-.9-1.1-4-2.4-3.1-1.2-7.2-3.2-9.1-4.4-3.5-2.2-11.7-10.4-15.1-15.2-1.7-2.4-1.7-2.3 0 .9zM38.8 276.7c.6.2 1.8.2 2.5 0 .6-.3.1-.5-1.3-.5-1.4 0-1.9.2-1.2.5zM280.8 276.7c.6.2 1.8.2 2.5 0 .6-.3.1-.5-1.3-.5-1.4 0-1.9.2-1.2.5zM101.8 277.7c32.5.2 85.9.2 118.5 0 32.5-.1 5.9-.2-59.3-.2s-91.8.1-59.2.2z"/></svg>